<svg aria-roledescription="er" viewBox="0 0 286.2038269042969 648" style="max-width: 286.204px; background-color: white;" xmlns:xlink="http://www.w3.org/1999/xlink" xmlns="http://www.w3.org/2000/svg" width="100%" id="mermaid-0"><style>#mermaid-0{font-family:"trebuchet ms",verdana,arial,sans-serif;font-size:16px;fill:#000000;}#mermaid-0 .error-icon{fill:#552222;}#mermaid-0 .error-text{fill:#552222;stroke:#552222;}#mermaid-0 .edge-thickness-normal{stroke-width:2px;}#mermaid-0 .edge-thickness-thick{stroke-width:3.5px;}#mermaid-0 .edge-pattern-solid{stroke-dasharray:0;}#mermaid-0 .edge-pattern-dashed{stroke-dasharray:3;}#mermaid-0 .edge-pattern-dotted{stroke-dasharray:2;}#mermaid-0 .marker{fill:#000000;stroke:#000000;}#mermaid-0 .marker.cross{stroke:#000000;}#mermaid-0 svg{font-family:"trebuchet ms",verdana,arial,sans-serif;font-size:16px;}#mermaid-0 .entityBox{fill:#cde498;stroke:#13540c;}#mermaid-0 .attributeBoxOdd{fill:#ffffff;stroke:#13540c;}#mermaid-0 .attributeBoxEven{fill:#f2f2f2;stroke:#13540c;}#mermaid-0 .relationshipLabelBox{fill:hsl(78.1578947368, 58.4615384615%, 84.5098039216%);opacity:0.7;background-color:hsl(78.1578947368, 58.4615384615%, 84.5098039216%);}#mermaid-0 .relationshipLabelBox rect{opacity:0.5;}#mermaid-0 .relationshipLine{stroke:#000000;}#mermaid-0 .entityTitleText{text-anchor:middle;font-size:18px;fill:#000000;}#mermaid-0 :root{--mermaid-font-family:"trebuchet ms",verdana,arial,sans-serif;}</style><g/><defs><marker orient="auto" markerHeight="18" markerWidth="18" refY="9" refX="0" id="ONLY_ONE_START"><path d="M9,0 L9,18 M15,0 L15,18" fill="none" stroke="gray"/></marker></defs><defs><marker orient="auto" markerHeight="18" markerWidth="18" refY="9" refX="18" id="ONLY_ONE_END"><path d="M3,0 L3,18 M9,0 L9,18" fill="none" stroke="gray"/></marker></defs><defs><marker orient="auto" markerHeight="18" markerWidth="30" refY="9" refX="0" id="ZERO_OR_ONE_START"><circle r="6" cy="9" cx="21" fill="white" stroke="gray"/><path d="M9,0 L9,18" fill="none" stroke="gray"/></marker></defs><defs><marker orient="auto" markerHeight="18" markerWidth="30" refY="9" refX="30" id="ZERO_OR_ONE_END"><circle r="6" cy="9" cx="9" fill="white" stroke="gray"/><path d="M21,0 L21,18" fill="none" stroke="gray"/></marker></defs><defs><marker orient="auto" markerHeight="36" markerWidth="45" refY="18" refX="18" id="ONE_OR_MORE_START"><path d="M0,18 Q 18,0 36,18 Q 18,36 0,18 M42,9 L42,27" fill="none" stroke="gray"/></marker></defs><defs><marker orient="auto" markerHeight="36" markerWidth="45" refY="18" refX="27" id="ONE_OR_MORE_END"><path d="M3,9 L3,27 M9,18 Q27,0 45,18 Q27,36 9,18" fill="none" stroke="gray"/></marker></defs><defs><marker orient="auto" markerHeight="36" markerWidth="57" refY="18" refX="18" id="ZERO_OR_MORE_START"><circle r="6" cy="18" cx="48" fill="white" stroke="gray"/><path d="M0,18 Q18,0 36,18 Q18,36 0,18" fill="none" stroke="gray"/></marker></defs><defs><marker orient="auto" markerHeight="36" markerWidth="57" refY="18" refX="39" id="ZERO_OR_MORE_END"><circle r="6" cy="18" cx="9" fill="white" stroke="gray"/><path d="M21,18 Q39,0 57,18 Q39,36 21,18" fill="none" stroke="gray"/></marker></defs><path style="stroke: gray; fill: none;" marker-start="url(#ZERO_OR_MORE_START)" marker-end="url(#ONLY_ONE_END)" d="M87.26416015625,378L87.26416015625,386.3333333333333C87.26416015625,394.6666666666667,87.26416015625,411.3333333333333,92.83963216145833,428C98.41510416666667,444.6666666666667,109.56604817708335,461.3333333333333,115.14152018229167,469.6666666666667L120.7169921875,478" class="er relationshipLine"/><path style="stroke: gray; fill: none;" marker-start="url(#ZERO_OR_MORE_START)" marker-end="url(#ONLY_ONE_END)" d="M127.47189096304086,128L120.77060249524239,136.33333333333334C114.06931402744391,144.66666666666666,100.66673709184697,161.33333333333334,93.96544862404848,178C87.26416015625,194.66666666666666,87.26416015625,211.33333333333334,87.26416015625,219.66666666666666L87.26416015625,228" class="er relationshipLine"/><path style="stroke: gray; fill: none;" marker-start="url(#ZERO_OR_MORE_START)" marker-end="url(#ONLY_ONE_END)" d="M214.32058950570914,128L221.0218779735076,136.33333333333334C227.72316644130606,144.66666666666666,241.12574337690305,161.33333333333334,247.82703184470154,190.5C254.5283203125,219.66666666666666,254.5283203125,261.3333333333333,254.5283203125,303C254.5283203125,344.6666666666667,254.5283203125,386.3333333333333,248.95284830729167,415.5C243.37737630208335,444.6666666666667,232.22643229166667,461.3333333333333,226.65096028645834,469.6666666666667L221.07548828125,478" class="er relationshipLine"/><g transform="translate(91.26249694824219,478 )" id="entity-users-7bebb0dd-6ad7-44c9-9248-8824c3e1e340"><rect height="150" width="159.26748657226562" y="0" x="0" class="er entityBox"/><text style="dominant-baseline: middle; text-anchor: middle; font-size: 12px;" transform="translate(79.63374328613281,12)" y="0" x="0" id="text-entity-users-7bebb0dd-6ad7-44c9-9248-8824c3e1e340" class="er entityLabel">users</text><rect height="21" width="54.113128662109375" y="24" x="0" class="er attributeBoxOdd"/><text style="dominant-baseline: middle; font-size: 10.2px;" transform="translate(5,34.5)" y="0" x="0" id="text-entity-users-7bebb0dd-6ad7-44c9-9248-8824c3e1e340-attr-1-type" class="er entityLabel">String</text><rect height="21" width="81.359375" y="24" x="54.113128662109375" class="er attributeBoxOdd"/><text style="dominant-baseline: middle; font-size: 10.2px;" transform="translate(59.113128662109375,34.5)" y="0" x="0" id="text-entity-users-7bebb0dd-6ad7-44c9-9248-8824c3e1e340-attr-1-name" class="er entityLabel">id</text><rect height="21" width="23.79498291015625" y="24" x="135.47250366210938" class="er attributeBoxOdd"/><text style="dominant-baseline: middle; font-size: 10.2px;" transform="translate(140.47250366210938,34.5)" y="0" x="0" id="text-entity-users-7bebb0dd-6ad7-44c9-9248-8824c3e1e340-attr-1-key" class="er entityLabel">PK</text><rect height="21" width="54.113128662109375" y="45" x="0" class="er attributeBoxEven"/><text style="dominant-baseline: middle; font-size: 10.2px;" transform="translate(5,55.5)" y="0" x="0" id="text-entity-users-7bebb0dd-6ad7-44c9-9248-8824c3e1e340-attr-2-type" class="er entityLabel">String</text><rect height="21" width="81.359375" y="45" x="54.113128662109375" class="er attributeBoxEven"/><text style="dominant-baseline: middle; font-size: 10.2px;" transform="translate(59.113128662109375,55.5)" y="0" x="0" id="text-entity-users-7bebb0dd-6ad7-44c9-9248-8824c3e1e340-attr-2-name" class="er entityLabel">name</text><rect height="21" width="23.79498291015625" y="45" x="135.47250366210938" class="er attributeBoxEven"/><text style="dominant-baseline: middle; font-size: 10.2px;" transform="translate(140.47250366210938,55.5)" y="0" x="0" id="text-entity-users-7bebb0dd-6ad7-44c9-9248-8824c3e1e340-attr-2-key" class="er entityLabel"/><rect height="21" width="54.113128662109375" y="66" x="0" class="er attributeBoxOdd"/><text style="dominant-baseline: middle; font-size: 10.2px;" transform="translate(5,76.5)" y="0" x="0" id="text-entity-users-7bebb0dd-6ad7-44c9-9248-8824c3e1e340-attr-3-type" class="er entityLabel">String</text><rect height="21" width="81.359375" y="66" x="54.113128662109375" class="er attributeBoxOdd"/><text style="dominant-baseline: middle; font-size: 10.2px;" transform="translate(59.113128662109375,76.5)" y="0" x="0" id="text-entity-users-7bebb0dd-6ad7-44c9-9248-8824c3e1e340-attr-3-name" class="er entityLabel">password_hash</text><rect height="21" width="23.79498291015625" y="66" x="135.47250366210938" class="er attributeBoxOdd"/><text style="dominant-baseline: middle; font-size: 10.2px;" transform="translate(140.47250366210938,76.5)" y="0" x="0" id="text-entity-users-7bebb0dd-6ad7-44c9-9248-8824c3e1e340-attr-3-key" class="er entityLabel"/><rect height="21" width="54.113128662109375" y="87" x="0" class="er attributeBoxEven"/><text style="dominant-baseline: middle; font-size: 10.2px;" transform="translate(5,97.5)" y="0" x="0" id="text-entity-users-7bebb0dd-6ad7-44c9-9248-8824c3e1e340-attr-4-type" class="er entityLabel">String</text><rect height="21" width="81.359375" y="87" x="54.113128662109375" class="er attributeBoxEven"/><text style="dominant-baseline: middle; font-size: 10.2px;" transform="translate(59.113128662109375,97.5)" y="0" x="0" id="text-entity-users-7bebb0dd-6ad7-44c9-9248-8824c3e1e340-attr-4-name" class="er entityLabel">email</text><rect height="21" width="23.79498291015625" y="87" x="135.47250366210938" class="er attributeBoxEven"/><text style="dominant-baseline: middle; font-size: 10.2px;" transform="translate(140.47250366210938,97.5)" y="0" x="0" id="text-entity-users-7bebb0dd-6ad7-44c9-9248-8824c3e1e340-attr-4-key" class="er entityLabel"/><rect height="21" width="54.113128662109375" y="108" x="0" class="er attributeBoxOdd"/><text style="dominant-baseline: middle; font-size: 10.2px;" transform="translate(5,118.5)" y="0" x="0" id="text-entity-users-7bebb0dd-6ad7-44c9-9248-8824c3e1e340-attr-5-type" class="er entityLabel">DateTime</text><rect height="21" width="81.359375" y="108" x="54.113128662109375" class="er attributeBoxOdd"/><text style="dominant-baseline: middle; font-size: 10.2px;" transform="translate(59.113128662109375,118.5)" y="0" x="0" id="text-entity-users-7bebb0dd-6ad7-44c9-9248-8824c3e1e340-attr-5-name" class="er entityLabel">createdAt</text><rect height="21" width="23.79498291015625" y="108" x="135.47250366210938" class="er attributeBoxOdd"/><text style="dominant-baseline: middle; font-size: 10.2px;" transform="translate(140.47250366210938,118.5)" y="0" x="0" id="text-entity-users-7bebb0dd-6ad7-44c9-9248-8824c3e1e340-attr-5-key" class="er entityLabel"/><rect height="21" width="54.113128662109375" y="129" x="0" class="er attributeBoxEven"/><text style="dominant-baseline: middle; font-size: 10.2px;" transform="translate(5,139.5)" y="0" x="0" id="text-entity-users-7bebb0dd-6ad7-44c9-9248-8824c3e1e340-attr-6-type" class="er entityLabel">DateTime</text><rect height="21" width="81.359375" y="129" x="54.113128662109375" class="er attributeBoxEven"/><text style="dominant-baseline: middle; font-size: 10.2px;" transform="translate(59.113128662109375,139.5)" y="0" x="0" id="text-entity-users-7bebb0dd-6ad7-44c9-9248-8824c3e1e340-attr-6-name" class="er entityLabel">updatedAt</text><rect height="21" width="23.79498291015625" y="129" x="135.47250366210938" class="er attributeBoxEven"/><text style="dominant-baseline: middle; font-size: 10.2px;" transform="translate(140.47250366210938,139.5)" y="0" x="0" id="text-entity-users-7bebb0dd-6ad7-44c9-9248-8824c3e1e340-attr-6-key" class="er entityLabel"/></g><g transform="translate(20,228 )" id="entity-questions-0475e733-f396-4bc0-858a-650b5be869f9"><rect height="150" width="134.5283203125" y="0" x="0" class="er entityBox"/><text style="dominant-baseline: middle; text-anchor: middle; font-size: 12px;" transform="translate(67.26416015625,12)" y="0" x="0" id="text-entity-questions-0475e733-f396-4bc0-858a-650b5be869f9" class="er entityLabel">questions</text><rect height="21" width="54.113128662109375" y="24" x="0" class="er attributeBoxOdd"/><text style="dominant-baseline: middle; font-size: 10.2px;" transform="translate(5,34.5)" y="0" x="0" id="text-entity-questions-0475e733-f396-4bc0-858a-650b5be869f9-attr-1-type" class="er entityLabel">String</text><rect height="21" width="56.620208740234375" y="24" x="54.113128662109375" class="er attributeBoxOdd"/><text style="dominant-baseline: middle; font-size: 10.2px;" transform="translate(59.113128662109375,34.5)" y="0" x="0" id="text-entity-questions-0475e733-f396-4bc0-858a-650b5be869f9-attr-1-name" class="er entityLabel">id</text><rect height="21" width="23.79498291015625" y="24" x="110.73333740234375" class="er attributeBoxOdd"/><text style="dominant-baseline: middle; font-size: 10.2px;" transform="translate(115.73333740234375,34.5)" y="0" x="0" id="text-entity-questions-0475e733-f396-4bc0-858a-650b5be869f9-attr-1-key" class="er entityLabel">PK</text><rect height="21" width="54.113128662109375" y="45" x="0" class="er attributeBoxEven"/><text style="dominant-baseline: middle; font-size: 10.2px;" transform="translate(5,55.5)" y="0" x="0" id="text-entity-questions-0475e733-f396-4bc0-858a-650b5be869f9-attr-2-type" class="er entityLabel">String</text><rect height="21" width="56.620208740234375" y="45" x="54.113128662109375" class="er attributeBoxEven"/><text style="dominant-baseline: middle; font-size: 10.2px;" transform="translate(59.113128662109375,55.5)" y="0" x="0" id="text-entity-questions-0475e733-f396-4bc0-858a-650b5be869f9-attr-2-name" class="er entityLabel">title</text><rect height="21" width="23.79498291015625" y="45" x="110.73333740234375" class="er attributeBoxEven"/><text style="dominant-baseline: middle; font-size: 10.2px;" transform="translate(115.73333740234375,55.5)" y="0" x="0" id="text-entity-questions-0475e733-f396-4bc0-858a-650b5be869f9-attr-2-key" class="er entityLabel"/><rect height="21" width="54.113128662109375" y="66" x="0" class="er attributeBoxOdd"/><text style="dominant-baseline: middle; font-size: 10.2px;" transform="translate(5,76.5)" y="0" x="0" id="text-entity-questions-0475e733-f396-4bc0-858a-650b5be869f9-attr-3-type" class="er entityLabel">String</text><rect height="21" width="56.620208740234375" y="66" x="54.113128662109375" class="er attributeBoxOdd"/><text style="dominant-baseline: middle; font-size: 10.2px;" transform="translate(59.113128662109375,76.5)" y="0" x="0" id="text-entity-questions-0475e733-f396-4bc0-858a-650b5be869f9-attr-3-name" class="er entityLabel">content</text><rect height="21" width="23.79498291015625" y="66" x="110.73333740234375" class="er attributeBoxOdd"/><text style="dominant-baseline: middle; font-size: 10.2px;" transform="translate(115.73333740234375,76.5)" y="0" x="0" id="text-entity-questions-0475e733-f396-4bc0-858a-650b5be869f9-attr-3-key" class="er entityLabel"/><rect height="21" width="54.113128662109375" y="87" x="0" class="er attributeBoxEven"/><text style="dominant-baseline: middle; font-size: 10.2px;" transform="translate(5,97.5)" y="0" x="0" id="text-entity-questions-0475e733-f396-4bc0-858a-650b5be869f9-attr-4-type" class="er entityLabel">Int</text><rect height="21" width="56.620208740234375" y="87" x="54.113128662109375" class="er attributeBoxEven"/><text style="dominant-baseline: middle; font-size: 10.2px;" transform="translate(59.113128662109375,97.5)" y="0" x="0" id="text-entity-questions-0475e733-f396-4bc0-858a-650b5be869f9-attr-4-name" class="er entityLabel">likes</text><rect height="21" width="23.79498291015625" y="87" x="110.73333740234375" class="er attributeBoxEven"/><text style="dominant-baseline: middle; font-size: 10.2px;" transform="translate(115.73333740234375,97.5)" y="0" x="0" id="text-entity-questions-0475e733-f396-4bc0-858a-650b5be869f9-attr-4-key" class="er entityLabel"/><rect height="21" width="54.113128662109375" y="108" x="0" class="er attributeBoxOdd"/><text style="dominant-baseline: middle; font-size: 10.2px;" transform="translate(5,118.5)" y="0" x="0" id="text-entity-questions-0475e733-f396-4bc0-858a-650b5be869f9-attr-5-type" class="er entityLabel">DateTime</text><rect height="21" width="56.620208740234375" y="108" x="54.113128662109375" class="er attributeBoxOdd"/><text style="dominant-baseline: middle; font-size: 10.2px;" transform="translate(59.113128662109375,118.5)" y="0" x="0" id="text-entity-questions-0475e733-f396-4bc0-858a-650b5be869f9-attr-5-name" class="er entityLabel">createdAt</text><rect height="21" width="23.79498291015625" y="108" x="110.73333740234375" class="er attributeBoxOdd"/><text style="dominant-baseline: middle; font-size: 10.2px;" transform="translate(115.73333740234375,118.5)" y="0" x="0" id="text-entity-questions-0475e733-f396-4bc0-858a-650b5be869f9-attr-5-key" class="er entityLabel"/><rect height="21" width="54.113128662109375" y="129" x="0" class="er attributeBoxEven"/><text style="dominant-baseline: middle; font-size: 10.2px;" transform="translate(5,139.5)" y="0" x="0" id="text-entity-questions-0475e733-f396-4bc0-858a-650b5be869f9-attr-6-type" class="er entityLabel">DateTime</text><rect height="21" width="56.620208740234375" y="129" x="54.113128662109375" class="er attributeBoxEven"/><text style="dominant-baseline: middle; font-size: 10.2px;" transform="translate(59.113128662109375,139.5)" y="0" x="0" id="text-entity-questions-0475e733-f396-4bc0-858a-650b5be869f9-attr-6-name" class="er entityLabel">updatedAt</text><rect height="21" width="23.79498291015625" y="129" x="110.73333740234375" class="er attributeBoxEven"/><text style="dominant-baseline: middle; font-size: 10.2px;" transform="translate(115.73333740234375,139.5)" y="0" x="0" id="text-entity-questions-0475e733-f396-4bc0-858a-650b5be869f9-attr-6-key" class="er entityLabel"/></g><g transform="translate(103.632080078125,20 )" id="entity-answers-202c5df1-d9ad-4fe5-85a0-abf41d252d52"><rect height="108" width="134.5283203125" y="0" x="0" class="er entityBox"/><text style="dominant-baseline: middle; text-anchor: middle; font-size: 12px;" transform="translate(67.26416015625,12)" y="0" x="0" id="text-entity-answers-202c5df1-d9ad-4fe5-85a0-abf41d252d52" class="er entityLabel">answers</text><rect height="21" width="54.113128662109375" y="24" x="0" class="er attributeBoxOdd"/><text style="dominant-baseline: middle; font-size: 10.2px;" transform="translate(5,34.5)" y="0" x="0" id="text-entity-answers-202c5df1-d9ad-4fe5-85a0-abf41d252d52-attr-1-type" class="er entityLabel">String</text><rect height="21" width="56.620208740234375" y="24" x="54.113128662109375" class="er attributeBoxOdd"/><text style="dominant-baseline: middle; font-size: 10.2px;" transform="translate(59.113128662109375,34.5)" y="0" x="0" id="text-entity-answers-202c5df1-d9ad-4fe5-85a0-abf41d252d52-attr-1-name" class="er entityLabel">id</text><rect height="21" width="23.79498291015625" y="24" x="110.73333740234375" class="er attributeBoxOdd"/><text style="dominant-baseline: middle; font-size: 10.2px;" transform="translate(115.73333740234375,34.5)" y="0" x="0" id="text-entity-answers-202c5df1-d9ad-4fe5-85a0-abf41d252d52-attr-1-key" class="er entityLabel">PK</text><rect height="21" width="54.113128662109375" y="45" x="0" class="er attributeBoxEven"/><text style="dominant-baseline: middle; font-size: 10.2px;" transform="translate(5,55.5)" y="0" x="0" id="text-entity-answers-202c5df1-d9ad-4fe5-85a0-abf41d252d52-attr-2-type" class="er entityLabel">String</text><rect height="21" width="56.620208740234375" y="45" x="54.113128662109375" class="er attributeBoxEven"/><text style="dominant-baseline: middle; font-size: 10.2px;" transform="translate(59.113128662109375,55.5)" y="0" x="0" id="text-entity-answers-202c5df1-d9ad-4fe5-85a0-abf41d252d52-attr-2-name" class="er entityLabel">content</text><rect height="21" width="23.79498291015625" y="45" x="110.73333740234375" class="er attributeBoxEven"/><text style="dominant-baseline: middle; font-size: 10.2px;" transform="translate(115.73333740234375,55.5)" y="0" x="0" id="text-entity-answers-202c5df1-d9ad-4fe5-85a0-abf41d252d52-attr-2-key" class="er entityLabel"/><rect height="21" width="54.113128662109375" y="66" x="0" class="er attributeBoxOdd"/><text style="dominant-baseline: middle; font-size: 10.2px;" transform="translate(5,76.5)" y="0" x="0" id="text-entity-answers-202c5df1-d9ad-4fe5-85a0-abf41d252d52-attr-3-type" class="er entityLabel">DateTime</text><rect height="21" width="56.620208740234375" y="66" x="54.113128662109375" class="er attributeBoxOdd"/><text style="dominant-baseline: middle; font-size: 10.2px;" transform="translate(59.113128662109375,76.5)" y="0" x="0" id="text-entity-answers-202c5df1-d9ad-4fe5-85a0-abf41d252d52-attr-3-name" class="er entityLabel">createdAt</text><rect height="21" width="23.79498291015625" y="66" x="110.73333740234375" class="er attributeBoxOdd"/><text style="dominant-baseline: middle; font-size: 10.2px;" transform="translate(115.73333740234375,76.5)" y="0" x="0" id="text-entity-answers-202c5df1-d9ad-4fe5-85a0-abf41d252d52-attr-3-key" class="er entityLabel"/><rect height="21" width="54.113128662109375" y="87" x="0" class="er attributeBoxEven"/><text style="dominant-baseline: middle; font-size: 10.2px;" transform="translate(5,97.5)" y="0" x="0" id="text-entity-answers-202c5df1-d9ad-4fe5-85a0-abf41d252d52-attr-4-type" class="er entityLabel">DateTime</text><rect height="21" width="56.620208740234375" y="87" x="54.113128662109375" class="er attributeBoxEven"/><text style="dominant-baseline: middle; font-size: 10.2px;" transform="translate(59.113128662109375,97.5)" y="0" x="0" id="text-entity-answers-202c5df1-d9ad-4fe5-85a0-abf41d252d52-attr-4-name" class="er entityLabel">updatedAt</text><rect height="21" width="23.79498291015625" y="87" x="110.73333740234375" class="er attributeBoxEven"/><text style="dominant-baseline: middle; font-size: 10.2px;" transform="translate(115.73333740234375,97.5)" y="0" x="0" id="text-entity-answers-202c5df1-d9ad-4fe5-85a0-abf41d252d52-attr-4-key" class="er entityLabel"/></g><rect height="14" width="23.34765625" y="424.2319030761719" x="82.31487274169922" class="er relationshipLabelBox"/><text style="text-anchor: middle; dominant-baseline: middle; font-size: 12px;" y="431.2319030761719" x="93.98870086669922" id="rel1" class="er relationshipLabel">user</text><rect height="14" width="45.375" y="166.59951782226562" x="73.19674682617188" class="er relationshipLabelBox"/><text style="text-anchor: middle; dominant-baseline: middle; font-size: 12px;" y="173.59951782226562" x="95.88424682617188" id="rel2" class="er relationshipLabel">question</text><rect height="14" width="23.34765625" y="294.6053466796875" x="242.8542022705078" class="er relationshipLabelBox"/><text style="text-anchor: middle; dominant-baseline: middle; font-size: 12px;" y="301.6053466796875" x="254.5280303955078" id="rel3" class="er relationshipLabel">user</text></svg>