<svg aria-roledescription="er" viewBox="0 0 256.0042266845703 564" style="max-width: 256.004px; background-color: white;" xmlns:xlink="http://www.w3.org/1999/xlink" xmlns="http://www.w3.org/2000/svg" width="100%" id="mermaid-0"><style>#mermaid-0{font-family:"trebuchet ms",verdana,arial,sans-serif;font-size:16px;fill:#000000;}#mermaid-0 .error-icon{fill:#552222;}#mermaid-0 .error-text{fill:#552222;stroke:#552222;}#mermaid-0 .edge-thickness-normal{stroke-width:2px;}#mermaid-0 .edge-thickness-thick{stroke-width:3.5px;}#mermaid-0 .edge-pattern-solid{stroke-dasharray:0;}#mermaid-0 .edge-pattern-dashed{stroke-dasharray:3;}#mermaid-0 .edge-pattern-dotted{stroke-dasharray:2;}#mermaid-0 .marker{fill:#000000;stroke:#000000;}#mermaid-0 .marker.cross{stroke:#000000;}#mermaid-0 svg{font-family:"trebuchet ms",verdana,arial,sans-serif;font-size:16px;}#mermaid-0 .entityBox{fill:#cde498;stroke:#13540c;}#mermaid-0 .attributeBoxOdd{fill:#ffffff;stroke:#13540c;}#mermaid-0 .attributeBoxEven{fill:#f2f2f2;stroke:#13540c;}#mermaid-0 .relationshipLabelBox{fill:hsl(78.1578947368, 58.4615384615%, 84.5098039216%);opacity:0.7;background-color:hsl(78.1578947368, 58.4615384615%, 84.5098039216%);}#mermaid-0 .relationshipLabelBox rect{opacity:0.5;}#mermaid-0 .relationshipLine{stroke:#000000;}#mermaid-0 .entityTitleText{text-anchor:middle;font-size:18px;fill:#000000;}#mermaid-0 :root{--mermaid-font-family:"trebuchet ms",verdana,arial,sans-serif;}</style><g/><defs><marker orient="auto" markerHeight="18" markerWidth="18" refY="9" refX="0" id="ONLY_ONE_START"><path d="M9,0 L9,18 M15,0 L15,18" fill="none" stroke="gray"/></marker></defs><defs><marker orient="auto" markerHeight="18" markerWidth="18" refY="9" refX="18" id="ONLY_ONE_END"><path d="M3,0 L3,18 M9,0 L9,18" fill="none" stroke="gray"/></marker></defs><defs><marker orient="auto" markerHeight="18" markerWidth="30" refY="9" refX="0" id="ZERO_OR_ONE_START"><circle r="6" cy="9" cx="21" fill="white" stroke="gray"/><path d="M9,0 L9,18" fill="none" stroke="gray"/></marker></defs><defs><marker orient="auto" markerHeight="18" markerWidth="30" refY="9" refX="30" id="ZERO_OR_ONE_END"><circle r="6" cy="9" cx="9" fill="white" stroke="gray"/><path d="M21,0 L21,18" fill="none" stroke="gray"/></marker></defs><defs><marker orient="auto" markerHeight="36" markerWidth="45" refY="18" refX="18" id="ONE_OR_MORE_START"><path d="M0,18 Q 18,0 36,18 Q 18,36 0,18 M42,9 L42,27" fill="none" stroke="gray"/></marker></defs><defs><marker orient="auto" markerHeight="36" markerWidth="45" refY="18" refX="27" id="ONE_OR_MORE_END"><path d="M3,9 L3,27 M9,18 Q27,0 45,18 Q27,36 9,18" fill="none" stroke="gray"/></marker></defs><defs><marker orient="auto" markerHeight="36" markerWidth="57" refY="18" refX="18" id="ZERO_OR_MORE_START"><circle r="6" cy="18" cx="48" fill="white" stroke="gray"/><path d="M0,18 Q18,0 36,18 Q18,36 0,18" fill="none" stroke="gray"/></marker></defs><defs><marker orient="auto" markerHeight="36" markerWidth="57" refY="18" refX="39" id="ZERO_OR_MORE_END"><circle r="6" cy="18" cx="9" fill="white" stroke="gray"/><path d="M21,18 Q39,0 57,18 Q39,36 21,18" fill="none" stroke="gray"/></marker></defs><path style="stroke: gray; fill: none;" marker-start="url(#ZERO_OR_MORE_START)" marker-end="url(#ONLY_ONE_END)" d="M72.16470336914062,294L72.16470336914062,302.3333333333333C72.16470336914062,310.6666666666667,72.16470336914062,327.3333333333333,77.23686014811197,344C82.30901692708333,360.6666666666667,92.45333048502603,377.3333333333333,97.52548726399739,385.6666666666667L102.59764404296875,394" class="er relationshipLine"/><path style="stroke: gray; fill: none;" marker-start="url(#ZERO_OR_MORE_START)" marker-end="url(#ONLY_ONE_END)" d="M117.99744534779744,86L110.3586550180213,94.33333333333333C102.71986468824518,102.66666666666667,87.4422840286929,119.33333333333333,79.80349369891677,136C72.16470336914062,152.66666666666666,72.16470336914062,169.33333333333334,72.16470336914062,177.66666666666666L72.16470336914062,186" class="er relationshipLine"/><path style="stroke: gray; fill: none;" marker-start="url(#ZERO_OR_MORE_START)" marker-end="url(#ONLY_ONE_END)" d="M178.49666475962442,86L186.13545508940055,94.33333333333333C193.7742454191767,102.66666666666667,209.05182607872896,119.33333333333333,216.6906164085051,145C224.32940673828125,170.66666666666666,224.32940673828125,205.33333333333334,224.32940673828125,240C224.32940673828125,274.6666666666667,224.32940673828125,309.3333333333333,219.2572499593099,335C214.18509318033853,360.6666666666667,204.04077962239583,377.3333333333333,198.96862284342447,385.6666666666667L193.89646606445314,394" class="er relationshipLine"/><g transform="translate(68.61331176757812,394 )" id="entity-users-529b1d31-0040-44b3-b3b1-ff4d97ae2ed1"><rect height="150" width="159.26748657226562" y="0" x="0" class="er entityBox"/><text style="dominant-baseline: middle; text-anchor: middle; font-size: 12px;" transform="translate(79.63374328613281,12)" y="0" x="0" id="text-entity-users-529b1d31-0040-44b3-b3b1-ff4d97ae2ed1" class="er entityLabel">users</text><rect height="21" width="54.113128662109375" y="24" x="0" class="er attributeBoxOdd"/><text style="dominant-baseline: middle; font-size: 10.2px;" transform="translate(5,34.5)" y="0" x="0" id="text-entity-users-529b1d31-0040-44b3-b3b1-ff4d97ae2ed1-attr-1-type" class="er entityLabel">String</text><rect height="21" width="81.359375" y="24" x="54.113128662109375" class="er attributeBoxOdd"/><text style="dominant-baseline: middle; font-size: 10.2px;" transform="translate(59.113128662109375,34.5)" y="0" x="0" id="text-entity-users-529b1d31-0040-44b3-b3b1-ff4d97ae2ed1-attr-1-name" class="er entityLabel">id</text><rect height="21" width="23.79498291015625" y="24" x="135.47250366210938" class="er attributeBoxOdd"/><text style="dominant-baseline: middle; font-size: 10.2px;" transform="translate(140.47250366210938,34.5)" y="0" x="0" id="text-entity-users-529b1d31-0040-44b3-b3b1-ff4d97ae2ed1-attr-1-key" class="er entityLabel">PK</text><rect height="21" width="54.113128662109375" y="45" x="0" class="er attributeBoxEven"/><text style="dominant-baseline: middle; font-size: 10.2px;" transform="translate(5,55.5)" y="0" x="0" id="text-entity-users-529b1d31-0040-44b3-b3b1-ff4d97ae2ed1-attr-2-type" class="er entityLabel">String</text><rect height="21" width="81.359375" y="45" x="54.113128662109375" class="er attributeBoxEven"/><text style="dominant-baseline: middle; font-size: 10.2px;" transform="translate(59.113128662109375,55.5)" y="0" x="0" id="text-entity-users-529b1d31-0040-44b3-b3b1-ff4d97ae2ed1-attr-2-name" class="er entityLabel">name</text><rect height="21" width="23.79498291015625" y="45" x="135.47250366210938" class="er attributeBoxEven"/><text style="dominant-baseline: middle; font-size: 10.2px;" transform="translate(140.47250366210938,55.5)" y="0" x="0" id="text-entity-users-529b1d31-0040-44b3-b3b1-ff4d97ae2ed1-attr-2-key" class="er entityLabel"/><rect height="21" width="54.113128662109375" y="66" x="0" class="er attributeBoxOdd"/><text style="dominant-baseline: middle; font-size: 10.2px;" transform="translate(5,76.5)" y="0" x="0" id="text-entity-users-529b1d31-0040-44b3-b3b1-ff4d97ae2ed1-attr-3-type" class="er entityLabel">String</text><rect height="21" width="81.359375" y="66" x="54.113128662109375" class="er attributeBoxOdd"/><text style="dominant-baseline: middle; font-size: 10.2px;" transform="translate(59.113128662109375,76.5)" y="0" x="0" id="text-entity-users-529b1d31-0040-44b3-b3b1-ff4d97ae2ed1-attr-3-name" class="er entityLabel">password_hash</text><rect height="21" width="23.79498291015625" y="66" x="135.47250366210938" class="er attributeBoxOdd"/><text style="dominant-baseline: middle; font-size: 10.2px;" transform="translate(140.47250366210938,76.5)" y="0" x="0" id="text-entity-users-529b1d31-0040-44b3-b3b1-ff4d97ae2ed1-attr-3-key" class="er entityLabel"/><rect height="21" width="54.113128662109375" y="87" x="0" class="er attributeBoxEven"/><text style="dominant-baseline: middle; font-size: 10.2px;" transform="translate(5,97.5)" y="0" x="0" id="text-entity-users-529b1d31-0040-44b3-b3b1-ff4d97ae2ed1-attr-4-type" class="er entityLabel">String</text><rect height="21" width="81.359375" y="87" x="54.113128662109375" class="er attributeBoxEven"/><text style="dominant-baseline: middle; font-size: 10.2px;" transform="translate(59.113128662109375,97.5)" y="0" x="0" id="text-entity-users-529b1d31-0040-44b3-b3b1-ff4d97ae2ed1-attr-4-name" class="er entityLabel">email</text><rect height="21" width="23.79498291015625" y="87" x="135.47250366210938" class="er attributeBoxEven"/><text style="dominant-baseline: middle; font-size: 10.2px;" transform="translate(140.47250366210938,97.5)" y="0" x="0" id="text-entity-users-529b1d31-0040-44b3-b3b1-ff4d97ae2ed1-attr-4-key" class="er entityLabel"/><rect height="21" width="54.113128662109375" y="108" x="0" class="er attributeBoxOdd"/><text style="dominant-baseline: middle; font-size: 10.2px;" transform="translate(5,118.5)" y="0" x="0" id="text-entity-users-529b1d31-0040-44b3-b3b1-ff4d97ae2ed1-attr-5-type" class="er entityLabel">DateTime</text><rect height="21" width="81.359375" y="108" x="54.113128662109375" class="er attributeBoxOdd"/><text style="dominant-baseline: middle; font-size: 10.2px;" transform="translate(59.113128662109375,118.5)" y="0" x="0" id="text-entity-users-529b1d31-0040-44b3-b3b1-ff4d97ae2ed1-attr-5-name" class="er entityLabel">createdAt</text><rect height="21" width="23.79498291015625" y="108" x="135.47250366210938" class="er attributeBoxOdd"/><text style="dominant-baseline: middle; font-size: 10.2px;" transform="translate(140.47250366210938,118.5)" y="0" x="0" id="text-entity-users-529b1d31-0040-44b3-b3b1-ff4d97ae2ed1-attr-5-key" class="er entityLabel"/><rect height="21" width="54.113128662109375" y="129" x="0" class="er attributeBoxEven"/><text style="dominant-baseline: middle; font-size: 10.2px;" transform="translate(5,139.5)" y="0" x="0" id="text-entity-users-529b1d31-0040-44b3-b3b1-ff4d97ae2ed1-attr-6-type" class="er entityLabel">DateTime</text><rect height="21" width="81.359375" y="129" x="54.113128662109375" class="er attributeBoxEven"/><text style="dominant-baseline: middle; font-size: 10.2px;" transform="translate(59.113128662109375,139.5)" y="0" x="0" id="text-entity-users-529b1d31-0040-44b3-b3b1-ff4d97ae2ed1-attr-6-name" class="er entityLabel">updatedAt</text><rect height="21" width="23.79498291015625" y="129" x="135.47250366210938" class="er attributeBoxEven"/><text style="dominant-baseline: middle; font-size: 10.2px;" transform="translate(140.47250366210938,139.5)" y="0" x="0" id="text-entity-users-529b1d31-0040-44b3-b3b1-ff4d97ae2ed1-attr-6-key" class="er entityLabel"/></g><g transform="translate(20,186 )" id="entity-questions-5c2b4d0e-8aa5-4e25-8038-ca61dbe11805"><rect height="108" width="104.32940673828125" y="0" x="0" class="er entityBox"/><text style="dominant-baseline: middle; text-anchor: middle; font-size: 12px;" transform="translate(52.164703369140625,12)" y="0" x="0" id="text-entity-questions-5c2b4d0e-8aa5-4e25-8038-ca61dbe11805" class="er entityLabel">questions</text><rect height="21" width="36.947052001953125" y="24" x="0" class="er attributeBoxOdd"/><text style="dominant-baseline: middle; font-size: 10.2px;" transform="translate(5,34.5)" y="0" x="0" id="text-entity-questions-5c2b4d0e-8aa5-4e25-8038-ca61dbe11805-attr-1-type" class="er entityLabel">String</text><rect height="21" width="43.587371826171875" y="24" x="36.947052001953125" class="er attributeBoxOdd"/><text style="dominant-baseline: middle; font-size: 10.2px;" transform="translate(41.947052001953125,34.5)" y="0" x="0" id="text-entity-questions-5c2b4d0e-8aa5-4e25-8038-ca61dbe11805-attr-1-name" class="er entityLabel">id</text><rect height="21" width="23.79498291015625" y="24" x="80.534423828125" class="er attributeBoxOdd"/><text style="dominant-baseline: middle; font-size: 10.2px;" transform="translate(85.534423828125,34.5)" y="0" x="0" id="text-entity-questions-5c2b4d0e-8aa5-4e25-8038-ca61dbe11805-attr-1-key" class="er entityLabel">PK</text><rect height="21" width="36.947052001953125" y="45" x="0" class="er attributeBoxEven"/><text style="dominant-baseline: middle; font-size: 10.2px;" transform="translate(5,55.5)" y="0" x="0" id="text-entity-questions-5c2b4d0e-8aa5-4e25-8038-ca61dbe11805-attr-2-type" class="er entityLabel">String</text><rect height="21" width="43.587371826171875" y="45" x="36.947052001953125" class="er attributeBoxEven"/><text style="dominant-baseline: middle; font-size: 10.2px;" transform="translate(41.947052001953125,55.5)" y="0" x="0" id="text-entity-questions-5c2b4d0e-8aa5-4e25-8038-ca61dbe11805-attr-2-name" class="er entityLabel">title</text><rect height="21" width="23.79498291015625" y="45" x="80.534423828125" class="er attributeBoxEven"/><text style="dominant-baseline: middle; font-size: 10.2px;" transform="translate(85.534423828125,55.5)" y="0" x="0" id="text-entity-questions-5c2b4d0e-8aa5-4e25-8038-ca61dbe11805-attr-2-key" class="er entityLabel"/><rect height="21" width="36.947052001953125" y="66" x="0" class="er attributeBoxOdd"/><text style="dominant-baseline: middle; font-size: 10.2px;" transform="translate(5,76.5)" y="0" x="0" id="text-entity-questions-5c2b4d0e-8aa5-4e25-8038-ca61dbe11805-attr-3-type" class="er entityLabel">String</text><rect height="21" width="43.587371826171875" y="66" x="36.947052001953125" class="er attributeBoxOdd"/><text style="dominant-baseline: middle; font-size: 10.2px;" transform="translate(41.947052001953125,76.5)" y="0" x="0" id="text-entity-questions-5c2b4d0e-8aa5-4e25-8038-ca61dbe11805-attr-3-name" class="er entityLabel">content</text><rect height="21" width="23.79498291015625" y="66" x="80.534423828125" class="er attributeBoxOdd"/><text style="dominant-baseline: middle; font-size: 10.2px;" transform="translate(85.534423828125,76.5)" y="0" x="0" id="text-entity-questions-5c2b4d0e-8aa5-4e25-8038-ca61dbe11805-attr-3-key" class="er entityLabel"/><rect height="21" width="36.947052001953125" y="87" x="0" class="er attributeBoxEven"/><text style="dominant-baseline: middle; font-size: 10.2px;" transform="translate(5,97.5)" y="0" x="0" id="text-entity-questions-5c2b4d0e-8aa5-4e25-8038-ca61dbe11805-attr-4-type" class="er entityLabel">Int</text><rect height="21" width="43.587371826171875" y="87" x="36.947052001953125" class="er attributeBoxEven"/><text style="dominant-baseline: middle; font-size: 10.2px;" transform="translate(41.947052001953125,97.5)" y="0" x="0" id="text-entity-questions-5c2b4d0e-8aa5-4e25-8038-ca61dbe11805-attr-4-name" class="er entityLabel">likes</text><rect height="21" width="23.79498291015625" y="87" x="80.534423828125" class="er attributeBoxEven"/><text style="dominant-baseline: middle; font-size: 10.2px;" transform="translate(85.534423828125,97.5)" y="0" x="0" id="text-entity-questions-5c2b4d0e-8aa5-4e25-8038-ca61dbe11805-attr-4-key" class="er entityLabel"/></g><g transform="translate(96.08235168457031,20 )" id="entity-answers-ece2464c-ad00-4035-b818-ef61d7982b32"><rect height="66" width="104.32940673828125" y="0" x="0" class="er entityBox"/><text style="dominant-baseline: middle; text-anchor: middle; font-size: 12px;" transform="translate(52.164703369140625,12)" y="0" x="0" id="text-entity-answers-ece2464c-ad00-4035-b818-ef61d7982b32" class="er entityLabel">answers</text><rect height="21" width="36.947052001953125" y="24" x="0" class="er attributeBoxOdd"/><text style="dominant-baseline: middle; font-size: 10.2px;" transform="translate(5,34.5)" y="0" x="0" id="text-entity-answers-ece2464c-ad00-4035-b818-ef61d7982b32-attr-1-type" class="er entityLabel">String</text><rect height="21" width="43.587371826171875" y="24" x="36.947052001953125" class="er attributeBoxOdd"/><text style="dominant-baseline: middle; font-size: 10.2px;" transform="translate(41.947052001953125,34.5)" y="0" x="0" id="text-entity-answers-ece2464c-ad00-4035-b818-ef61d7982b32-attr-1-name" class="er entityLabel">id</text><rect height="21" width="23.79498291015625" y="24" x="80.534423828125" class="er attributeBoxOdd"/><text style="dominant-baseline: middle; font-size: 10.2px;" transform="translate(85.534423828125,34.5)" y="0" x="0" id="text-entity-answers-ece2464c-ad00-4035-b818-ef61d7982b32-attr-1-key" class="er entityLabel">PK</text><rect height="21" width="36.947052001953125" y="45" x="0" class="er attributeBoxEven"/><text style="dominant-baseline: middle; font-size: 10.2px;" transform="translate(5,55.5)" y="0" x="0" id="text-entity-answers-ece2464c-ad00-4035-b818-ef61d7982b32-attr-2-type" class="er entityLabel">String</text><rect height="21" width="43.587371826171875" y="45" x="36.947052001953125" class="er attributeBoxEven"/><text style="dominant-baseline: middle; font-size: 10.2px;" transform="translate(41.947052001953125,55.5)" y="0" x="0" id="text-entity-answers-ece2464c-ad00-4035-b818-ef61d7982b32-attr-2-name" class="er entityLabel">content</text><rect height="21" width="23.79498291015625" y="45" x="80.534423828125" class="er attributeBoxEven"/><text style="dominant-baseline: middle; font-size: 10.2px;" transform="translate(85.534423828125,55.5)" y="0" x="0" id="text-entity-answers-ece2464c-ad00-4035-b818-ef61d7982b32-attr-2-key" class="er entityLabel"/></g><rect height="14" width="23.34765625" y="339.7388610839844" x="66.44102478027344" class="er relationshipLabelBox"/><text style="text-anchor: middle; dominant-baseline: middle; font-size: 12px;" y="346.7388610839844" x="78.11485290527344" id="rel1" class="er relationshipLabel">user</text><rect height="14" width="45.375" y="123.58871459960938" x="59.851051330566406" class="er relationshipLabelBox"/><text style="text-anchor: middle; dominant-baseline: middle; font-size: 12px;" y="130.58871459960938" x="82.5385513305664" id="rel2" class="er relationshipLabel">question</text><rect height="14" width="23.34765625" y="229.636962890625" x="212.6546173095703" class="er relationshipLabelBox"/><text style="text-anchor: middle; dominant-baseline: middle; font-size: 12px;" y="236.636962890625" x="224.3284454345703" id="rel3" class="er relationshipLabel">user</text></svg>